<svg width="5919.3" height="4e3" version="1.1" viewBox="0 0 5919.3 4e3" xmlns="http://www.w3.org/2000/svg">
 <g transform="matrix(1.3333 0 0 -1.3333 0 5919.3)">
  <g transform="scale(.1)">
   <g transform="rotate(90 14116 28553)">
    <g transform="scale(2.7236)">
     <path d="m11545-2717.8h-12075v21736h12075v-21736" fill="#34335f"/>
    </g>
    <g transform="scale(2.7236)">
     <path d="m6461.5 17746-63.12 26.4-515.34 215.8 303.23-357.2-17.11-150.2-14.83-130 130.08-14.2 1294.6-141.1 117.49-686.5-2367.3-1820.9 466.7 30.4 2121.6 1631.9 62.16 47.9-13.22 77.3-147.27 860.7-16.56 96.8-97.7 10.7-1262.2 137.6 8.12 71.2 10.65 93.4" fill="#3b94a8"/>
    </g>
    <g transform="scale(2.7236)">
     <path d="m6581.7 16461-303.64 249.1-366.02-13.8-626.08-1771.8 2177.6 1646.4-72.22 502.3-828.64 57.2 352.07-269.6 343.59-60.7-1438.1-1145.1 278.35 787.7 483.03 18.3" fill="#3b94a8"/>
    </g>
    <g transform="scale(2.7236)">
     <path d="m3656.1 15476 1798.5-1505.3 3032.7 2223.2-78.09 546.9 1160.3-1749 391.9-119.6-1973.3 2974.4 219.27-1534.9-2739.8-2008.5-1198.8 1032.8 440.96 90.5 804.44 1923.2-1701.7-1669.4 568.77 193.1 395.32 387.8-254-607.2-866.66-178" fill="#66c655"/>
    </g>
    <g transform="scale(2.5364)">
     <path d="m4603.3 13450-242.7 477.8-2223 976.5 79.53-555.5-741.16 678.2 450.26 242.1 3118.2-1362.3zm1513.2 293.6-4203 1836.2-917.11-493.1 1608.2-1471.6-118.94 830.8 1670.9-734 375.25-738.6 786.09 814.1 290.61-127-1321.5-1198.4-604.02-1535.5 3296.9 2858.5-2931.4 2455.7-506.86 59.8 3007.2-2519.1-2188.7-1897.8 163.3 415.2 1593.2 1444.8" fill="#75cb62"/>
    </g>
    <g transform="scale(1.3903)">
     <path d="m2247.1 15966h389.38l114.06 333.9-503.44-333.9" fill="#66c655"/>
    </g>
    <g transform="scale(2.7236)">
     <path d="m7527.1 18508-2436.6 372.5 150.64-985.3 503.41-382.6-782.49-2050.4 73.73-537.4 762.15 1997.2-1.14-14.3 890.91-71.4-394.66 292.9-403.69 32.4 168.05 440.3-574.75 436.9-81.15 530.7 2086.2-318.9 39.36 257.4" fill="#3b94a8"/>
    </g>
    <g transform="scale(2.7236)">
     <path d="m10600 17741-103.7-2856.5-7.5-205.8 189.1 81.4 866.6 373.1v283.6l-780.5-336 74.4 2049.9-238.4 610.3" fill="#3b94a8"/>
    </g>
    <g transform="scale(2.6149)">
     <path d="m8391.2 16300-2546.6-1867.2 1056.4-893 1283 994.6-263.3-1123.4-146.88 586.9-141.58-551.5 297.14-1187.4 163.49 697.7 1045.4-138.6-302.22 313.7-680.97 90.3 106.08 452.7 613.85-37.2-563.56 251.9 311.28 1328.3-1714.4-1329.1-625.71 529 189.22 138.7 420.27-357.3 1660.7 1245.1-61.65 719-194.42-583.5-1394.4-1045.4-213.35 181.4 1475.5 1081.8 226.66 502.5" fill="#3b94a8"/>
    </g>
    <g transform="scale(2.39)">
     <path d="m10441 15940 51.3 359.7-490.3-251.1-60.49-515.7 1236.6-529.8-306.5-1226 214.7-364.8 441.1 1764.1-1265.3 542.1 16.2 138.1 162.7 83.4" fill="#66c655"/>
    </g>
    <g transform="scale(2.1904)">
     <path d="m13764 15162-129.6 138.4-723.2 772-212.7 227.1-59.4-287.8-295.9-1433.7 496.6 1096.8 428.6-457.4-270.9-183.6-214.3-145.2 202.8-114.4 832.4-469.4-489.9 562.2 278.6 188.6 156.9 106.4" fill="#3b94a8"/>
    </g>
    <g transform="scale(1.9483)">
     <path d="m6867.9 13127 10.32-76.9 175.64-1311.9 27.97-208.9 6312 1807.1 292.2 83.6-211.6 218.1-2582.4 2662.1 5.9-528.9 1621.5-1671.6c-95.9-27.4-219.1-62.7-378.5-108.4-408.7-117-952.2-273.2-1495.2-429.3-636.5-183.1-1272.4-366.1-1689.5-486.3l617.21 876.5-48.97-387.6 2427.6 740.3-1146.4 1180.8-614.9-1083.4 689.3 501.9 418.4-431-1357-413.8 157.91 1250.4-2006.1-2848.7 480.17 138.4c1303.3 375.4 3664.2 1054.9 4224 1213.6l204-210.3-5614.7-1607.5-137.4 1026.2 921.48 1156.6-503.99-120.8-971.37-345.4 632.1-7.9-411.34-516.3-48.35-60.7" fill="#66c655"/>
    </g>
    <g transform="scale(2.2047)">
     <path d="m2551 11150 880.69-109.8 5140.6 4564.3 416.75-1598.1-599.59-183.8-150.49 365.7-2061.3-1720.8 1440.1 308.7-742.05-1001.8-224.84-844 1732.6 2339-999.96-214.4 724.86 605.2 95.07-231.1 1174.8 360.1-627.03 2404.4-4663.4-4140.7-320.23 40.8 925.19 2352.3 350.29 290.6-76.51 261.5-400.69 223.8 109.04-372.8-251.24-208.3-1106.8-2814.2 451.44-57.4-441.22-391.7-330.79 41.2 1599.7 4242.3-1468.1 639.2 86.93-640.1-915.87-561.6 308.1 581.6-449.07-160.4-694.44-1310.9 2098.3 1286.7-38.23 281.5 663.28-288.8-1635.9-4338.2" fill="#338295"/>
    </g>
    <g transform="scale(1.9923)">
     <path d="m14569 12249-296.3 28.4 180.4 1349.5-664.1-85.8-2113.1 2224.9 4026.5-529.5 80.7 53.7v294.8l-1491.5 196.1-445 519.3 163.7-482.3-3285.2 432.1 2930.2-3085.5 383.5 49.6-277.1-2072.4h359.2l104.6 782.3 823.6-78.8-480.1 403.6" fill="#338295"/>
    </g>
    <g transform="scale(1.5782)">
     <path d="m15956 15062-1201.1-518.7 727.7-478.6h817.9l-602.5 396.3 436.2 188.4-178.2 412.6" fill="#338295"/>
    </g>
    <g transform="scale(2.7236)">
     <path d="m-530.29 17071 1514.9-1483.7-1514.9-645.2v-283.1l1975.8 841.5-1975.8 1935v-364.5" fill="#338295"/>
    </g>
    <g transform="scale(2.6283)">
     <path d="m703.93 16260-474.42 38.5-779.02 1.2v-269.9l126.36-0.2-126.36-54.4v-293.8l832.17 358.2 421.27 220.4" fill="#3b94a8"/>
    </g>
    <g transform="scale(1.9803)">
     <path d="m-21.588 16116-582.72 183.5 616.82-829.8-741.86-1440.6v-782.5l1162.5 2257.6-454.78 611.8" fill="#3b94a8"/>
    </g>
    <g transform="scale(2.7236)">
     <path d="m1809 17496-259.46 244.8-3.96-983.9-2049.3 885.8 2148.3-2101.7 438.06 352.2-30.62-288.5-2582.3-1104.7v-325.2l1373.7-1364.4-447.28-868.9-146.95 181.6 350.56 593.9-1130 1148.7v-371.4l803.99-817.3-199.39-337.8-552.9 683.5-51.699 21v-371.2l975.15-1205.3 717.39 1393.5-1463.7 1453.9 2596.4 1110.7 112.84 1063.5-746.23-600-978.35 957.1 1121.2-484.6 4.58 1134.7" fill="#338295"/>
    </g>
    <g transform="scale(2.5388)">
     <path d="m2932.5 9088.3 422.7-55.22 1919.4 1317.6-815.29-81.1 2732.1 2347.5 169.48-426.5 95.21 516.9-149.72 376.7-3701.5-3180.5 613.96 61.09-933.55-640.89-1318.7 172.37 1437.4 3956.2-2618.5-1631.7 1137.6 2096.1-1314.3 1262.4 1281 591.5 479.4 529.2-2249.1-1038.7 1455.9-1398.4-1540.8-2838.9 2829.9 1763.5-1280.1-3523.1 1069.9-139.83-71.9-367.17 9.7-14.26h272.22l67.58 345.16" fill="#66c655"/>
    </g>
    <g transform="scale(1.433)">
     <path d="m2094 15890-277.81 409.7-1194.9-810.3h881.98l590.76 400.6" fill="#338295"/>
    </g>
    <g transform="scale(1.918)">
     <path d="m974.99 14381 487.85 306.8-662.16-775.6zm-1471.1-2102.6 1799.1 1198.2 529.01 1443.3 782.42 491.9-968.77-2657.1-368.07 237.2-897.1-615.4-230.12-606.3 1133.6 777.6 550.52-354.8 1497.3 4106.8-3741.7-2352.8 624.26-44.3 157.92 99.3-1125.3-1057.4v-52.8l1497.5 954.5-1276.5-1495.1-221.04 448.2v-836.2l192.39-390.2h412.35l-347.83 705.4" fill="#3b94a8"/>
    </g>
    <g transform="scale(2.1772)">
     <path d="m10119 16300 272.9-374.7 917.7-150 293.9 47.2-174.2-658.3-1156.8 178-432.69-263 1829.6-281.5 377.1 1426-736.5-118.3-1191 194.6" fill="#75cb62"/>
    </g>
    <g transform="scale(2.7236)">
     <path d="m-530.29 16848v-355.2l399.44-370.4-399.44-99.4v-51.3l674.58-45.9 345.36-23.6-268.26 248.8-751.68 697" fill="#3b94a8"/>
    </g>
    <g transform="scale(1.3757)">
     <path d="m8703.2 16135h147.13l-21.16 164.6-125.97-164.6" fill="#75cb62"/>
    </g>
    <g transform="scale(2.7236)">
     <path d="m6244.6 18251-547-149.2 2148.8-460.1 118.04 1015.1 1994.4-1423.8-36.68-1324.7-884.08 1395 682-697.1-490.12 899.2-1143.7 788 2163.8-3505.8-10.7 2585.7-133.9 93.6 133.9 131.5-2 363.2-349.06-343-2002.2 1399.3h-141.83l-123.44-1061.5-1376.1 294.6" fill="#66c655"/>
    </g>
    <g transform="scale(2.7236)">
     <path d="m4768.8 17845 4.84-44.6 31.25-32.1 213.65-219.7-2811-2828-135.74-136.6 177.29-75.1 3092.1-1310.3-644.1 549.3-1524.3 1299.8 39.24-375.7 671.98-573-1355.9 574.6 2765.5 2782.2 90.25 90.8-89.25 91.8-271.63 279.3-119.54 1100.3h-261.97l127.44-1173" fill="#3b94a8"/>
    </g>
    <g transform="scale(1.4042)">
     <path d="m3459 16300-505.19-491.6h505.19v491.6" fill="#66c655"/>
    </g>
    <g transform="scale(1.3771)">
     <path d="m15337 16300-21.1-181.3h280.5l-259.4 181.3" fill="#3b94a8"/>
    </g>
    <g transform="scale(2.7236)">
     <path d="m1965.3 16647v-305.3l220.35 211.3 471.02 451.6-208.87-1459.7-55.05-384.7 271.6 269.9 2100 2087.2-2010.8-1674.3 214.42 1498.4 53.48 373.8-272.52-261.3-523.18-501.7v2065.6h-260.45v-2370.8" fill="#3992a8"/>
    </g>
    <g transform="scale(1.4042)">
     <path d="m3812 16300v-491.6h505.18l-505.18 491.6" fill="#3992a8"/>
    </g>
    <g transform="scale(2.7236)">
     <path d="m10984 15598-14.1-128 144.1-0.2 431.3-0.7v260.5l-319 0.5-167.1 1066.3-75.2-1198.4" fill="#3b94a8"/>
    </g>
    <g transform="scale(2.445)">
     <path d="m10611 15708 454.9-506.5-859.4 276.8 1064.6-505.3 1279.8-1424.7-246.9-177.5 218.4-282.4 338.5-156.7v193.2l-143.6 185.7 143.6 103.2v223.5l-1810 2015 381.3 253.8 680.8-914.5 458-129.3-1070.4 1437.8-889.6-592.1" fill="#3b94a8"/>
    </g>
    <g transform="scale(2.4967)">
     <path d="m12594 15991v308.8l-1094.9-466.3 1094.9-1113v405.1l-599.9 609.9 599.9 255.5" fill="#338295"/>
    </g>
    <g transform="scale(1.8859)">
     <path d="m16673 15814-3517.4 486.1 1452-1626.7 1050.7 57.1-334.6 358.5-545.2-29.7-687.6 784.9 2280.4-368.2-874.7-1525.7-53.1-475.4 322.5-499.5 95.7 855.5 811.3 1415.1v568" fill="#75cb62"/>
    </g>
    <g transform="scale(2.6889)">
     <path d="m9680.4 14814-954.12 1486.2-418.81-354.4 129.69-448.6 145.04-501.6-324.45-1402.1 1107.9-399.9-248.21 370.1-549.89 198.5 119.08 514.6 503.78 434.1-403.1 0.9 67.35 291.2-246.28 851.9 58.5 49.5 938.84-1462.4 591.1 407.7-423.37 28.4-93.05-64.1" fill="#338295"/>
    </g>
    <g transform="scale(1.8405)">
     <path d="m16044 12461-492.5-182.3 429.3-217.8h770.3l35.1 23.7-742.2 376.4" fill="#338295"/>
    </g>
    <g transform="scale(1.6826)">
     <path d="m14157 13192-996 687.7 2649.8 837.8-165.9-1525.5h424.1l230.7 2122.2-4086.8-1292.2 1202.1-830h742" fill="#338295"/>
    </g>
    <g transform="scale(1.5596)">
     <path d="m8378.5 15930-40.21 370-298.85-197.2-2833.9-1870.2h56.98l2698.8 1326.1 144.14-1326.1h457.49l-184.47 1697.4" fill="#3b94a8"/>
    </g>
    <g transform="scale(1.4084)">
     <path d="m14249 15761h278.2l-17.9 539.3-260.3-539.3" fill="#3b94a8"/>
    </g>
    <g transform="scale(1.4286)">
     <path d="m7748 15538 780.61 762.3-1760.8-762.3h980.23" fill="#3b94a8"/>
    </g>
    <g transform="scale(1.474)">
     <path d="m11649 15176 1293.5 399.8 712.1 723.8-4013.9-1240.6h2769.9l-761.6 117" fill="#3b94a8"/>
    </g>
    <g transform="scale(1.3333)">
     <path d="m13199 14050-129 54-1052.7 440.8 619.5-729.8-35-306.7-30.3-265.5 265.7-29 2644.5-288.3 240-1402.2-4835.6-3719.7 953.3 62.1 4333.7 3333.6 127 97.7-27 158-300.8 1758.1-33.8 197.8-199.6 21.8-2578.3 281 16.6 145.5 21.8 190.8" fill="#3b94a8"/>
    </g>
    <g transform="scale(1.2471)">
     <path d="m14374 12215-663.2 544-799.3-30.3-1367.3-3869.4 4755.8 3595.7-157.7 1097-1809.7 124.9 768.9-588.9 750.4-132.5-3140.7-2500.8 607.9 1720.2 1054.9 40.1" fill="#3b94a8"/>
    </g>
    <g transform="scale(1.6645)">
     <path d="m5982.5 7539.7 2943-2463.1 4962.5 3637.9-127.8 894.81 1898.6-2861.9 641.3-195.73-3228.9 4867 358.8-2511.6-4483.1-3286.4-1961.5 1689.9 721.54 148.21 1316.3 3146.8-2784.4-2731.6 930.67 316.01 646.86 634.55-415.62-993.63-1418.1-291.26" fill="#66c655"/>
    </g>
    <g transform="scale(1.0861)">
     <path d="m10750 4156.1-566.8 1115.8-5191.5 2280.6 185.72-1297.4-1730.8 1583.7 1051.5 565.4 7282-3181.3zm3533.8 685.82-9815.2 4287.9-2141.7-1151.5 3755.7-3436.6-277.76 1940.3 3901.9-1714.1 876.35-1725 1835.7 1901.1 678.7-296.46-3086.1-2798.6-1410.6-3585.9 7699.2 6675.6-6845.7 5734.8-1183.7 139.6 7022.6-5883-5111.3-4431.6 381.4 969.39 3720.6 3374.2" fill="#75cb62"/>
    </g>
    <g transform="scale(1.3388)">
     <path d="m15313 15542-4956.9 757.7 306.4-2004.5 1024.1-778.3-1591.8-4171.3 150-1093.2 1550.4 4063-2.3-29 1812.5-145.4-802.9 596-821.3 65.8 341.9 895.9-1169.2 888.6-165.1 1079.8 4244.1-648.8 80.1 523.7" fill="#3b94a8"/>
    </g>
    <g transform="scale(1.8405)">
     <path d="m15687 10171-153.5-4227.2-11.1-304.43 279.8 120.46 1282.5 552.08v419.61l-1155-497.26 110.1 3033.6-352.8 903.15" fill="#3b94a8"/>
    </g>
    <g transform="scale(1.466)">
     <path d="m14967 8883.8-4542.4-3330.4 1884.4-1593 2288.5 1774.2-469.6-2003.9-262 1046.9-252.5-983.83 530-2117.8 291.6 1244.5 1864.7-247.27-539.1 559.61-1214.6 161.05 189.2 807.42 1094.9-66.37-1005.2 449.32 555.2 2369.4-3058-2370.7-1116.1 943.51 337.6 247.4 749.6-637.37 2962.2 2220.8-110 1282.6-346.8-1040.9-2487.1-1864.7-380.6 323.53 2631.8 1929.6 404.3 896.37" fill="#3b94a8"/>
    </g>
    <g transform="scale(1.6902)">
     <path d="m14764 5027.8 72.6 508.69-693.3-355.1-85.6-729.19 1748.7-749.06-433.5-1733.7 303.7-515.85 623.6 2494.5-1789.1 766.46 22.9 195.42 230 117.79" fill="#66c655"/>
    </g>
    <g transform="scale(1.8405)">
     <path d="m16381 1962.5-154.3 164.68-860.6 918.78-253.2 270.31-70.7-342.47-352.2-1706.3 591.1 1305.4 510.1-544.48-322.5-218.47-255-172.78 241.4-136.16 990.7-558.71-583.1 669.06 331.5 224.56 186.8 126.6" fill="#3b94a8"/>
    </g>
    <g transform="scale(1.6358)">
     <path d="m8179.6-2460.6 12.29-91.63 209.19-1562.6 33.31-248.74 241.28 69.07 7276.3 2083.2 348 99.64-252 259.75-3075.6 3170.5 7-629.95 1931.2-1990.8c-114.2-32.58-260.9-74.63-450.8-129.04-486.8-139.5-1134-325.46-1780.8-511.42-758-217.99-1515.3-436.04-2012.2-579.15l735.1 1043.9-58.3-461.53 2891.2 881.63-1365.3 1406.4-732.4-1290.3 820.9 597.8 498.4-513.32-1616.2-492.83 188.1 1489.1-2389.3-3392.7 571.88 164.75c1552.2 447.23 4363.9 1256.4 5030.7 1445.5l243.1-250.57-6687.1-1914.5-163.65 1222.2 1097.5 1377.4-600.24-143.84-1156.9-411.47 752.82-9.35-489.9-614.85-57.58-72.26" fill="#66c655"/>
    </g>
    <g transform="scale(1.2685)">
     <path d="m4433.9-3955.8 1530.7-190.86 8934.7 7933 724.3-2777.4-1042.1-319.52-261.6 635.56-3582.6-2990.9 2502.9 536.54-1289.7-1741.1-390.8-1467 3011.4 4065.4-1738-372.57 1259.8 1051.7 165.3-401.58 2041.8 625.94-1089.8 4178.9-8105.3-7196.6-556.58 70.71 1608 4088.5 608.83 505.02-132.99 454.63-696.42 388.9 189.51-647.79-436.67-362.24-1923.7-4891.1 784.65-99.73-766.88-680.98-574.94 71.75 2780.4 7373.4-2551.6 1110.9 151.1-1112.5-1591.8-976.13 535.5 1010.9-780.5-278.76-1207-2278.6 3647.1 2236.5-66.45 489.17 1152.8-501.95-2843.2-7540" fill="#338295"/>
    </g>
    <g transform="scale(1.8405)">
     <path d="m15770-2823.5-320.7 30.76 195.3 1460.8-718.9-92.96-2287.4 2408.5 4358.6-573.27 87.3 58.137v319.16l-1614.5 212.33-481.7 562.08 177.2-522.03-3556.2 467.7 3172-3340 415 53.68-299.8-2243.4h388.8l113.2 846.9 891.6-85.42-519.8 436.95" fill="#338295"/>
    </g>
    <g transform="scale(1.0974)">
     <path d="m-1316.1 15395 3759.7-3682.2-3759.7-1601.3v-702.58l4903.5 2088.5-4903.5 4802.3v-904.7" fill="#338295"/>
    </g>
    <path d="m1850.2 13138-1246.9 101.3-2047.5 3.1v-709.3l332.11-0.5-332.11-143v-772.3l2187.2 941.5 1107.2 579.2" fill="#3b94a8"/>
    <path d="m-42.75 2315.4-1154 363.3 1221.5-1643.2-1469.1-2852.9v-1549.4l2302.1 4470.6-900.59 1211.6" fill="#3b94a8"/>
    <g transform="scale(1.1484)">
     <path d="m4290.2 15720-615.35 580.4-9.39-2333.4-4860.1 2100.7 5094.9-4984.3 1038.9 835.4-72.62-684.4-6124.2-2620v-771.15l3257.8-3235.9-1060.8-2060.6-348.51 430.76 831.4 1408.4-2680 2724.3v-880.77l1906.8-1938.4-472.88-801.01-1311.3 1620.8-122.61 49.8v-880.33l2312.7-2858.6 1701.4 3305-3471.3 3447.9 6157.5 2634.1 267.61 2522.3-1769.8-1423-2320.2 2269.9 2659.1-1149.4 10.87 2691.3" fill="#338295"/>
    </g>
    <g transform="scale(1.3618)">
     <path d="m2294.1 16300-2497-1656 2469.4-1131.6 4.46-540.8-2996.1 1390.7 541.57-825.6 2982.1-1384.3-13.95 1695.5-1919.3 879.6 954.9 633.2-249.1-729.1 1995.3-613.9v2282.3h-520.9v-1577.1l-807.88 248.6 453.86 1328.5h-397.52" fill="#66c655"/>
    </g>
    <g transform="scale(1.3618)">
     <path d="m10291 16256 4450.9-683.8 307.6-47.2-9.2 276.7-16.5 498.7h-287.7l-90-186.4-1213.5 186.4h-2998.1l-143.5-44.4" fill="#3b94a8"/>
    </g>
    <g transform="scale(1.1613)">
     <path d="m6410.8-5619.4 924.09-120.81 4196.1 2880.6-1782.3-177.47 5972.7 5131.9 370.5-932.29 208.1 1130.1-327.3 823.53-8092-6953 1342.2 133.64-2040.9-1401.1-2882.9 376.72 3142.4 8648.9-5724.4-3567.2 2486.9 4582.3-2873.2 2759.8 2800.4 1293.2 1048.1 1156.8-4916.9-2270.6 3182.7-3057.2-3368.3-6206.2 6186.6 3855.2-2798.4-7702.1 2338.9-305.6-157.18-802.78 21.19-31.08h595.11l147.74 754.56" fill="#66c655"/>
    </g>
    <path d="m1870-2016.5 935.69 588.3-1270-1487.6zm-2821.6-4032.8 3450.7 2298.2 1014.6 2768.1 1500.7 943.6-1858.1-5096.4-705.96 455-1720.6-1180.3-441.37-1163 2174.3 1491.5 1055.9-680.5 2871.9 7876.8-7176.7-4512.5 1197.3-85.1 302.89 190.5-2158.3-2028v-101.4l2872.2 1830.7-2448.2-2867.7-423.96 859.9v-1604.1l369-748.3h790.9l-667.13 1353" fill="#3b94a8"/>
    <g transform="scale(1.6091)">
     <path d="m13692 3660.1 369.3-507.05 1241.7-202.91 397.7 63.89-235.7-890.69-1565.3 240.82-585.4-355.98 2475.6-380.83 510.3 1929.5-996.6-160.09-1611.6 263.37" fill="#75cb62"/>
    </g>
    <path d="m-1444.3 16288v-967.4l1087.9-1008.8-1087.9-270.7v-139.6l1837.3-125.2 940.62-64.2-730.62 677.5-2047.3 1898.4" fill="#3b94a8"/>
    <g transform="scale(1.7127)">
     <path d="m9930.4 11741-869.85-237.4 3417-731.6 187.7 1614.3 3171.6-2264.2-58.4-2106.6-1405.9 2218.4 1084.6-1108.7-779.4 1430-1818.7 1253.1 3440.9-5574.9-17 4111.8-212.9 148.8 212.9 209.2-3.1 577.5-555.2-545.4-3184 2225.1h-225.6l-196.3-1688-2188.4 468.6" fill="#66c655"/>
    </g>
    <g transform="scale(1.3618)">
     <path d="m9537.7 13954 9.69-89.2 62.49-64.2 427.3-439.4-5622-5656.1-271.5-273.16 6538.8-2770.8-4336.9 3698.3 78.47-751.5 1344-1146-2711.9 1149.2 5531 5564.5 180.5 181.6-178.5 183.6-543.2 558.6-239.13 2200.5h-523.93l254.88-2345.9" fill="#3b94a8"/>
    </g>
    <g transform="scale(1.3618)">
     <path d="m8469.6 15879 260.02-2026.2-2002.7-1691.9 89.85 1129.7 1610.8 722.3-22.54 190.1-150.32 1265.8-64.69 544.8-359.89-374.8-1577.1-1642.6 1533.6 997 78.5-661.6-1402.4-628.9-140.82-63.2-12.24-153.8-151.61-1906.3-49.53-622.8 477.23 403.2 2588.3 2186.6 108.24 91.5-17.99 140.6-323.69 2521.9h-148.62l-322.44-421.4" fill="#75cb62"/>
    </g>
    <g transform="scale(1.3618)">
     <path d="m5337.5 15215-546.23 588.5 112.11-2652.8 3224.7 3149.1h-1028.3l-774.58-335.4-703.09-800.8 941.5 336.5-1189.1-1161.2-37.02 876.1" fill="#3b94a8"/>
    </g>
    <g transform="scale(1.8405)">
     <path d="m16751 12061h-770.3l46.8-23.7-484.2-327.2-280.3 182.8 22.5 168.1h-388.8l-47.9-358.1 698.3-455.4 1203.9 813.5" fill="#338295"/>
    </g>
    <g transform="scale(1.8405)">
     <path d="m15002 10869 582.1-393.7 1500.9 1143.6v242.3l-116.8 153.3-1397.5-1064.9-609.1 411.9-424.4-401.7-1594 1100.7h-678.3l2310.4-1595.4 426.7 403.9" fill="#338295"/>
    </g>
    <g transform="scale(1.6588)">
     <path d="m16300 13382h-430.1l-24.1-222.1-337.6 222.1h-778.2l1465.2-963.7 104.8 963.7" fill="#338295"/>
    </g>
    <g transform="scale(1.3618)">
     <path d="m6027 16300h-65.26l-190.2-125.5 255.46 125.5" fill="#3b94a8"/>
    </g>
    <g transform="scale(1.3618)">
     <path d="m5227.7 15721 113.38 579.1h-507.5l394.12-579.1" fill="#66c655"/>
    </g>
    <g transform="scale(1.8405)">
     <path d="m17085 11200-1219.1-826.7 1219.1-1194.1v539.42l-612.7 600.15 612.7 415.5v465.7" fill="#338295"/>
    </g>
    <g transform="scale(1.3618)">
     <path d="m3930.5 11558v-610.5l440.71 422.6 942.03 903.2-417.74-2919.4-110.09-769.42 4743.3 4714.2-4021.7-3348.6 535.8 3744.5-545.04-522.7-1046.4-1003.3v4131.1h-520.89v-4741.7" fill="#3992a8"/>
    </g>
    <g transform="scale(1.3618)">
     <path d="m-1060.6 15138v-629.4l2642.4 1791.8h-928.12l-1714.3-1162.4" fill="#338295"/>
    </g>
    <g transform="scale(1.8405)">
     <path d="m16254 7e3 -20.8-189.41 213.2-0.33 638.3-0.92v385.39l-472.1 0.7-247.2 1578-111.4-1773.4" fill="#3b94a8"/>
    </g>
    <g transform="scale(1.8405)">
     <path d="m14096 4784.2 604.3-672.75-1141.6 367.67 1414.3-671.29 1700-1892.6-327.9-235.7 290.1-375.22 449.6-208.21v256.72l-190.7 246.68 190.7 137.08v296.93l-2404.3 2676.7 506.5 337.2 904.4-1214.8 608.3-171.74-1421.9 1909.9-1181.8-786.64" fill="#3b94a8"/>
    </g>
    <g transform="scale(1.8405)">
     <path d="m17085 5610.4v418.91l-1485.2-632.61 1485.2-1509.9v549.58l-813.8 827.34 813.8 346.65" fill="#338295"/>
    </g>
    <g transform="scale(1.8405)">
     <path d="m17085 121.6-3604.2 498.13 1487.8-1666.9 1076.7 58.522-342.9 367.29-558.6-30.318-704.5 804.19 2336.6-377.29-896.2-1563.3-54.5-487.05 330.5-511.81 98 876.56 831.3 1450v582.02" fill="#75cb62"/>
    </g>
    <g transform="scale(1.6821)">
     <path d="m15474 6083.2-1525.2 2375.8-669.5-566.5 207.3-717.15 231.9-801.81-518.7-2241.3 1771-639.27-396.7 591.53-879.1 317.35 190.4 822.61 805.3 694.03-644.4 1.36 107.7 465.44-393.7 1361.8 93.5 79.13 1500.8-2337.7 944.9 651.7-676.8 45.54-148.7-102.61" fill="#338295"/>
    </g>
   </g>
  </g>
 </g>
</svg>
