<svg width="952.1px" height="952.1px" enable-background="new 0 0 952.1 952.1" version="1.1" viewBox="0 0 952.1 952.1" xmlns="http://www.w3.org/2000/svg" xmlns:xlink="http://www.w3.org/1999/xlink">
 <g stroke="#fff" style="paint-order:fill markers stroke">
  <g stroke="#fff" style="paint-order:fill markers stroke">
   <path d="m812.55 139.4c-43.7-43.7-94.6-78-151.3-102-58.7-24.8-121-37.4-185.3-37.4-64.2 0.1-126.5 12.6-185.2 37.5-56.7 24-107.6 58.3-151.3 102s-78 94.6-102 151.3c-24.8 58.7-37.4 121-37.4 185.3 0 64.201 12.6 126.6 37.4 185.3 24 56.699 58.3 107.6 102 151.3 43.7 43.701 94.6 78 151.3 102 58.7 24.801 121 37.4 185.3 37.4 64.2 0 126.6-12.6 185.3-37.4 56.7-24 107.6-58.299 151.3-102 43.699-43.699 78-94.6 102-151.3 24.8-58.701 37.399-121 37.399-185.3 0-64.2-12.6-126.6-37.399-185.3-24.101-56.8-58.401-107.6-102.1-151.4zm-600-31.9c4.3-3.3 8.5-6.8 12.9-9.9 23.1-16.2 48.7-29.3 74.7-40.2 55.4-23.2 115.6-35.4 175.8-35.4 40.1 0 81.2 5.4 119.9 16-15.3 6.2-34 18-65.399 44.8-26.101-2.8-52.5-2.9-79-0.4-34.601 3.3-69.4 11-103.4 23-30.7 10.8-55 23.1-71.4 32.5-25.1-9-57.5-19.6-73.5-24.8 2.5 0.8 7.7-4.3 9.4-5.6zm433.6 119-81.4 222.2-195.3 37.5-161.4-166.7c10.9-75.6 62.7-142.6 62.7-142.6 0.3-0.2 34.1-24.6 88.3-43.5 31.601-11.1 63.8-18.2 95.9-21.2 26.2-2.4 52.3-2 78.1 1.1l113.1 113.2zm-606.8 233.7c-5 32.3-6.1 65.8-3.5 99.5-3.9-7.799-7-14.398-9.3-19.699-3-20.9-4.5-42.301-4.5-64.1 0-67 14.5-130.7 40.6-188-2.9 30-1.5 61.1 0.6 84.7-11.2 28.099-19.2 57.399-23.9 87.599zm39.5 173.1c-4.6-16.9-10-41.5-12.7-71-3-33.301-2.1-66.4 2.9-98.101 3.8-24.3 9.9-47.899 18.3-70.6 32.9-27.8 76.5-44.1 100.6-51.6l158.4 163.6-16.6 179.3-154.8 51.7c-39.4-29-71.6-67.401-96.1-103.3zm470.4 259.6c-34.5 22.6-121.7 28-157.1 29.299-39-7.299-76.9-19.799-112.6-37-31.2-15-60.8-33.6-87.8-55.398 0.5-0.9-4.2-48.602-4-66l156.4-52.201 180.5 78.1 24.899 102.9c-0.198 0.201-0.298 0.3-0.298 0.3zm299.9-158.3c-26.9 38.8-59.1 74.9-97.8 102.3-36.3 25.6-84.899 34.4-128.1 41.5-3.3 0.5-44.6 7.299-44.9 5.9l-24.899-103 127.1-132.3 168.3-15.5c2.601 26.801 6 65.9 8 89.801-2.6 3.799-5.1 7.599-7.7 11.299zm2.6-134.6c-0.6 1-1.2 2.1-1.8 3.301l-167.6 15.398-90.2-157.8 81.6-222.7 115.2 7.3c24.5 20.5 46.2 43.3 64.6 67.9 23 30.9 40.9 64.8 53.101 100.7-12.801 111.2-42.301 166.6-54.901 185.9zm60.1-250.2c-9.899-19.1-21.5-37.5-34.6-55-20.7-27.7-45.3-53.2-73.2-75.9-5.1-25.3-19.1-65.1-56.7-106.9 0.7 0.5 1.4 1.1 2.101 1.6 2.3 1.7 4.5 3.5 6.8 5.2 25.9 20.4 49.5 43.5 70.4 68.9 38.8 47.3 68.1 102.2 85.3 161.1-0.101 0.4-0.101 0.7-0.101 1z" fill="current" stroke="#fff" style="paint-order:fill markers stroke"/>
  </g>
 </g>
 <g fill="#f0f" stroke-width="0"></g>
 <g fill="#fff" stroke="#fff" stroke-width="2">
  <path d="m361.37 914.06c-48.205-13.006-93.69-33.616-134.9-61.124-37.121-24.78-33.837-19.694-36.115-55.933-1.0719-17.05-1.3663-31.536-0.6543-32.19 0.712-0.65457 35.647-12.648 77.633-26.653l76.338-25.462 179.32 77.492 12.586 50.623c14.493 58.293 15.415 52.408-9.5578 60.992-27.219 9.3558-70.34 16.123-115.5 18.126-22.256 0.9873-24.91 0.67038-49.154-5.8713z" style="paint-order:fill markers stroke"/>
  <path d="m167 728.67c-23.431-18.811-52.057-48.913-73.193-76.968-12.253-16.264-14.225-20.158-17.728-35-12.445-52.742-13.302-120.74-2.1764-172.71 1.1756-5.492 4.9499-19.117 8.3872-30.278l6.2497-20.292 18.476-12.219c19.662-13.003 42.995-24.579 66.194-32.841l14.21-5.0607 157.82 162.98-7.6876 84.863c-4.2282 46.675-8.0774 86.663-8.5539 88.863-0.7182 3.3164-13.552 8.2724-75.095 29-40.826 13.75-75.28 25.245-76.566 25.545-1.2853 0.29978-5.9369-2.3451-10.337-5.8775z" style="paint-order:fill markers stroke"/>
  <path d="m30.408 546.12c-6.9018-15.211-8.69-87.082-3.2205-129.44 3.8517-29.827 13.597-69.291 24.078-97.506l7.7348-20.822 1.2724 37.689c1.2255 36.3 1.0992 38.149-3.4293 50.18-13.412 35.633-20.809 77.27-22.506 126.69-1.1723 34.132-1.6553 38.214-3.9286 33.204z" style="paint-order:fill markers stroke"/>
  <path d="m311.01 423.62c-32.866-33.891-69.233-71.28-80.815-83.086l-21.059-21.465 3.3359-15.868c6.8044-32.366 27.095-77.96 49.415-111.04 11.444-16.96 18.929-22.211 58.554-41.079 58.964-28.077 127.4-42.269 187.56-38.894l23 1.2906 56.5 56.211c31.075 30.916 56.5 56.898 56.5 57.739 0 3.4384-78.745 216.74-80.787 218.83-1.2174 1.2472-43.163 10.073-93.213 19.614s-92.852 17.799-95.116 18.353c-3.3105 0.80972-15.808-11.05-63.873-60.614z" style="paint-order:fill markers stroke"/>
  <path d="m242.51 125.26c-17.87-6.1908-32.209-12.156-31.865-13.256 1.2871-4.1156 33.162-25.302 55.427-36.841 30.848-15.987 64.212-28.81 96.485-37.081 43.28-11.093 66.842-13.966 114.44-13.956 42.424 0.0088 56.181 1.3625 94.494 9.2986l20.494 4.2451-10.494 5.9843c-11.497 6.5565-27.51 17.918-41.494 29.441l-9 7.4163-38-0.07188c-37.024-0.07004-56.303 1.6643-87 7.8267-36.961 7.4199-84.907 24.363-115.65 40.871-8.0595 4.327-14.809 7.7574-15 7.6232-0.19054-0.13424-14.967-5.3092-32.837-11.5z" style="paint-order:fill markers stroke"/>
  <path d="m638.19 538.84-44.656-78.16 40.424-110.34c22.233-60.687 40.608-110.54 40.834-110.77s25.743 1.2133 56.706 3.2268l56.295 3.6608 9.6039 8.1205c41.734 35.288 80.883 90.747 102.53 145.25l5.885 14.815-3.8987 25.397c-8.8185 57.447-21.068 99.693-40.148 138.46-9.8919 20.099-12.84 24.504-16.413 24.525-2.3956 0.014-38.106 3.1585-79.356 6.9884s-76.835 6.9688-79.077 6.9751c-3.2751 0.01-12.861-15.362-48.733-78.149z" style="paint-order:fill markers stroke"/>
  <path d="m893 315.43c-16.361-25.198-39.564-52.724-64.732-76.795-21.043-20.125-23.962-23.746-26.31-32.637-6.0364-22.855-21.809-54.647-36.464-73.5-9.9645-12.818-3.1945-8.3247 19.12 12.691 48.746 45.91 87.852 102.98 112.07 163.54 4.1204 10.304 7.2268 19.491 6.9032 20.416-0.32363 0.92472-5.0884-5.2491-10.588-13.72z" style="paint-order:fill markers stroke"/>
  <path d="m567.22 833.49c-6.4805-27.218-11.539-50.387-11.242-51.487s28.667-31.273 63.044-67.051l62.503-65.051 82.486-7.5342c45.368-4.1438 82.82-7.2007 83.228-6.7931 0.40764 0.40764 2.5179 20.021 4.6894 43.586l3.9482 42.844-8.8492 13c-28.494 41.859-73.72 87.463-106.04 106.93-14.93 8.9903-38.668 18.179-62.983 24.381-18.55 4.7311-86.666 16.707-94.874 16.68-3.7374-0.012-5.2351-4.6723-15.909-49.5z" style="paint-order:fill markers stroke"/>
 </g>
</svg>
